HIERARCHY
ROOT root
{
	OFFSET	0	13.1	24.9
	CHANNELS 6  Xposition Yposition Zposition Xrotation Yrotation Zrotation
	JOINT spine_1
	{
		OFFSET	0	9.99999	0
		CHANNELS 3  Xrotation Yrotation Zrotation
		JOINT spine_2
		{
			OFFSET	0	112	-10
			CHANNELS 3  Xrotation Yrotation Zrotation
			JOINT spine_3
			{
				OFFSET	0	206.5	19.3
				CHANNELS 3  Xrotation Yrotation Zrotation
				JOINT spine_4
				{
					OFFSET	0	110.4	14.6
					CHANNELS 3  Xrotation Yrotation Zrotation
					JOINT neck_1
					{
						OFFSET	0	71.8	-50.3
						CHANNELS 3  Xrotation Yrotation Zrotation
						JOINT neck_2
						{
							OFFSET	0	86.2	-25.8
							CHANNELS 3  Xrotation Yrotation Zrotation
							JOINT head_ee
							{
								OFFSET	0	179.8	-8.7
								CHANNELS 3  Xrotation Yrotation Zrotation
								End Site
								{
									OFFSET	1	0	0
								}
							}
						}
					}
					JOINT left_clavicle
					{
						OFFSET	-43.2	22.4	-70.8
						CHANNELS 3  Xrotation Yrotation Zrotation
						JOINT left_shoulder
						{
							OFFSET	-93.9	-5.79999	48.7
							CHANNELS 3  Xrotation Yrotation Zrotation
							JOINT left_elbow
							{
								OFFSET	-291.4	-30.8	15.2
								CHANNELS 3  Xrotation Yrotation Zrotation
								JOINT left_lowarm_twist
								{
									OFFSET	-110.7	-3.89999	13.6
									CHANNELS 3  Xrotation Yrotation Zrotation
									JOINT left_hand
									{
										OFFSET	-110.7	-3.89999	13.6
										CHANNELS 3  Xrotation Yrotation Zrotation
										JOINT left_ee
										{
											OFFSET	-80.8	-5.10001	12.1
											CHANNELS 3  Xrotation Yrotation Zrotation
											End Site
											{
												OFFSET	1	0	0
											}
										}
									}
								}
							}
						}
					}
					JOINT right_clavicle
					{
						OFFSET	43.2	22.4	-70.8
						CHANNELS 3  Xrotation Yrotation Zrotation
						JOINT right_shoulder
						{
							OFFSET	93.9	-5.79999	48.7
							CHANNELS 3  Xrotation Yrotation Zrotation
							JOINT right_elbow
							{
								OFFSET	291.4	-30.8	15.2
								CHANNELS 3  Xrotation Yrotation Zrotation
								JOINT right_lowarm_twist
								{
									OFFSET	110.7	-3.89999	13.6
									CHANNELS 3  Xrotation Yrotation Zrotation
									JOINT right_hand
									{
										OFFSET	110.7	-3.89999	13.6
										CHANNELS 3  Xrotation Yrotation Zrotation
										JOINT right_ee
										{
											OFFSET	80.8	-5.10001	12.1
											CHANNELS 3  Xrotation Yrotation Zrotation
											End Site
											{
												OFFSET	1	0	0
											}
										}
									}
								}
							}
						}
					}
				}
			}
		}
	}
	JOINT left_hip
	{
		OFFSET	-82.8	-127.5	0.300001
		CHANNELS 3  Xrotation Yrotation Zrotation
		JOINT left_knee
		{
			OFFSET	-28.2	-396.7	2.2
			CHANNELS 3  Xrotation Yrotation Zrotation
			JOINT left_ankle
			{
				OFFSET	-11.7	-411.3	35.4
				CHANNELS 3  Xrotation Yrotation Zrotation
				JOINT left_toes
				{
					OFFSET	0	-60	-88.6
					CHANNELS 3  Xrotation Yrotation Zrotation
					JOINT left_foot_ee
					{
						OFFSET	-22.5	-16.5	-42.2
						CHANNELS 3  Xrotation Yrotation Zrotation
						End Site
						{
							OFFSET	1	0	0
						}
					}
				}
			}
		}
	}
	JOINT right_hip
	{
		OFFSET	82.8	-127.5	0.300001
		CHANNELS 3  Xrotation Yrotation Zrotation
		JOINT right_knee
		{
			OFFSET	28.2	-396.7	2.2
			CHANNELS 3  Xrotation Yrotation Zrotation
			JOINT right_ankle
			{
				OFFSET	11.7	-411.3	35.4
				CHANNELS 3  Xrotation Yrotation Zrotation
				JOINT right_toes
				{
					OFFSET	0	-60	-88.6
					CHANNELS 3  Xrotation Yrotation Zrotation
					JOINT right_foot_ee
					{
						OFFSET	22.5	-16.5	-42.2
						CHANNELS 3  Xrotation Yrotation Zrotation
						End Site
						{
							OFFSET	1	0	0
						}
					}
				}
			}
		}
	}
}
MOTION
Frames: 12
Frame Time: 0.02
855.679559239 603.943 -1586.11860905 -82.8209689338 78.446760127 84.2751407968 3.86443 -0.317007 0.736395 3.86466 -0.363222 0.714732 3.85999 -0.462309 0.655015 3.85957 -0.353063 0.719804 -4.34109 -6.14172 -2.88966 -4.30436 -9.0541 -3.96524 -0.0 0.0 -0.0 -7.6726 16.6515 -10.2269 -24.47 -32.4865 66.2281 1.15203 -29.7115 0.305588 -4.00338 -0.158143 0.486573 0.619966 9.00677 7.75492 -0.0 0.0 -0.0 8.22195 -7.84079 -15.7216 -35.1137 29.2433 -56.1251 0.588455 16.2517 -0.0840213 2.99361 -0.0958142 0.370317 0.309586 -1.42062 -2.65766 0.0 0.0 0.0 20.8569 -3.43038 0.841999 -4.53625 0.16001 0.677608 13.7652 8.87616 -1.93022 6.36505 -0.0 -0.0 -0.0 0.0 -0.0 26.0475 31.3987 1.80654 -30.6752 -0.0176142 -4.65168 42.1727 -25.4537 5.38745 -3.14511 0.0 0.0 0.0 0.0 0.0 
853.801620408 603.943 -1589.8301086 -77.3762984018 78.2506405877 78.7161074817 3.86443 -0.317007 0.736395 3.86466 -0.363222 0.714732 3.85999 -0.462309 0.655015 3.85957 -0.353063 0.719804 -4.34109 -6.14172 -2.88966 -4.30436 -9.0541 -3.96524 -0.0 0.0 -0.0 -7.6726 16.6515 -10.2269 -24.47 -32.4865 66.2281 1.15203 -29.7115 0.305588 -4.00338 -0.158143 0.486573 0.619966 9.00677 7.75492 -0.0 0.0 -0.0 8.22195 -7.84079 -15.7216 -35.1137 29.2433 -56.1251 0.588455 16.2517 -0.0840213 2.99361 -0.0958142 0.370317 0.309586 -1.42062 -2.65766 0.0 0.0 0.0 20.8569 -3.43038 0.841999 -4.53625 0.16001 0.677608 13.7652 8.87616 -1.93022 6.36505 -0.0 -0.0 -0.0 0.0 -0.0 26.0475 31.3987 1.80654 -30.6752 -0.0176142 -4.65168 42.1727 -25.4537 5.38745 -3.14511 0.0 0.0 0.0 0.0 0.0 
728.500171799 608.607 -1723.30977379 -84.0589702118 71.354533162 82.5693948804 7.60153 0.3753 0.943795 7.60197 0.314486 0.965761 7.60651 0.237332 0.987555 7.60536 0.390312 0.937687 -26.386 -7.58382 -3.94689 -26.7152 -13.0381 -7.72869 -0.0 0.0 -0.0 -6.96403 20.5929 -7.83752 -15.1039 -35.7568 65.1687 1.95324 -44.0512 0.79024 12.5614 0.270489 -1.57861 0.359107 12.8771 7.57419 -0.0 0.0 -0.0 2.82081 -11.0933 -6.10582 -21.0506 39.1905 -68.3479 0.581521 16.0702 -0.0820912 -6.58917 0.27823 -0.79459 0.863934 -1.02398 -6.19688 0.0 0.0 0.0 20.3829 -12.6644 -3.82925 -5.98735 0.199805 0.896743 19.4517 14.168 -2.68242 -18.4094 0.0 0.0 -0.0 0.0 -0.0 24.7148 25.3078 -2.82046 -16.8033 -0.32 -2.54954 28.1628 -27.1863 3.94552 -5.38601 0.0 0.0 0.0 0.0 0.0 
728.809185076 608.607 -1725.60863871 -82.8206664161 71.306414392 81.2623192495 7.60153 0.3753 0.943795 7.60197 0.314486 0.965761 7.60651 0.237332 0.987555 7.60536 0.390312 0.937687 -26.386 -7.58382 -3.94689 -26.7152 -13.0381 -7.72869 -0.0 0.0 -0.0 -6.96403 20.5929 -7.83752 -15.1039 -35.7568 65.1687 1.95324 -44.0512 0.79024 12.5614 0.270489 -1.57861 0.359107 12.8771 7.57419 -0.0 0.0 -0.0 2.82081 -11.0933 -6.10582 -21.0506 39.1905 -68.3479 0.581521 16.0702 -0.0820912 -6.58917 0.27823 -0.79459 0.863934 -1.02398 -6.19688 0.0 0.0 0.0 20.3829 -12.6644 -3.82925 -5.98735 0.199805 0.896743 19.4517 14.168 -2.68242 -18.4094 0.0 0.0 -0.0 0.0 -0.0 24.7148 25.3078 -2.82046 -16.8033 -0.32 -2.54954 28.1628 -27.1863 3.94552 -5.38601 0.0 0.0 0.0 0.0 0.0 
729.20574646 608.607 -1728.38764238 -81.3316286082 71.2361433833 79.6900381965 7.60153 0.3753 0.943795 7.60197 0.314486 0.965761 7.60651 0.237332 0.987555 7.60536 0.390312 0.937687 -26.386 -7.58382 -3.94689 -26.7152 -13.0381 -7.72869 -0.0 0.0 -0.0 -6.96403 20.5929 -7.83752 -15.1039 -35.7568 65.1687 1.95324 -44.0512 0.79024 12.5614 0.270489 -1.57861 0.359107 12.8771 7.57419 -0.0 0.0 -0.0 2.82081 -11.0933 -6.10582 -21.0506 39.1905 -68.3479 0.581521 16.0702 -0.0820912 -6.58917 0.27823 -0.79459 0.863934 -1.02398 -6.19688 0.0 0.0 0.0 20.3829 -12.6644 -3.82925 -5.98735 0.199805 0.896743 19.4517 14.168 -2.68242 -18.4094 0.0 0.0 -0.0 0.0 -0.0 24.7148 25.3078 -2.82046 -16.8033 -0.32 -2.54954 28.1628 -27.1863 3.94552 -5.38601 0.0 0.0 0.0 0.0 0.0 
729.778515731 608.607 -1732.12238053 -79.3472783774 71.1209995195 77.5936133789 7.60153 0.3753 0.943795 7.60197 0.314486 0.965761 7.60651 0.237332 0.987555 7.60536 0.390312 0.937687 -26.386 -7.58382 -3.94689 -26.7152 -13.0381 -7.72869 -0.0 0.0 -0.0 -6.96403 20.5929 -7.83752 -15.1039 -35.7568 65.1687 1.95324 -44.0512 0.79024 12.5614 0.270489 -1.57861 0.359107 12.8771 7.57419 -0.0 0.0 -0.0 2.82081 -11.0933 -6.10582 -21.0506 39.1905 -68.3479 0.581521 16.0702 -0.0820912 -6.58917 0.27823 -0.79459 0.863934 -1.02398 -6.19688 0.0 0.0 0.0 20.3829 -12.6644 -3.82925 -5.98735 0.199805 0.896743 19.4517 14.168 -2.68242 -18.4094 0.0 0.0 -0.0 0.0 -0.0 24.7148 25.3078 -2.82046 -16.8033 -0.32 -2.54954 28.1628 -27.1863 3.94552 -5.38601 0.0 0.0 0.0 0.0 0.0 
730.213915855 608.607 -1734.7793079 -77.949510645 71.0247717627 76.1159605011 7.60153 0.3753 0.943795 7.60197 0.314486 0.965761 7.60651 0.237332 0.987555 7.60536 0.390312 0.937687 -26.386 -7.58382 -3.94689 -26.7152 -13.0381 -7.72869 -0.0 0.0 -0.0 -6.96403 20.5929 -7.83752 -15.1039 -35.7568 65.1687 1.95324 -44.0512 0.79024 12.5614 0.270489 -1.57861 0.359107 12.8771 7.57419 -0.0 0.0 -0.0 2.82081 -11.0933 -6.10582 -21.0506 39.1905 -68.3479 0.581521 16.0702 -0.0820912 -6.58917 0.27823 -0.79459 0.863934 -1.02398 -6.19688 0.0 0.0 0.0 20.3829 -12.6644 -3.82925 -5.98735 0.199805 0.896743 19.4517 14.168 -2.68242 -18.4094 0.0 0.0 -0.0 0.0 -0.0 24.7148 25.3078 -2.82046 -16.8033 -0.32 -2.54954 28.1628 -27.1863 3.94552 -5.38601 0.0 0.0 0.0 0.0 0.0 
730.497118717 608.607 -1736.43550239 -77.0848370209 70.95882812 75.2014209275 7.60153 0.3753 0.943795 7.60197 0.314486 0.965761 7.60651 0.237332 0.987555 7.60536 0.390312 0.937687 -26.386 -7.58382 -3.94689 -26.7152 -13.0381 -7.72869 -0.0 0.0 -0.0 -6.96403 20.5929 -7.83752 -15.1039 -35.7568 65.1687 1.95324 -44.0512 0.79024 12.5614 0.270489 -1.57861 0.359107 12.8771 7.57419 -0.0 0.0 -0.0 2.82081 -11.0933 -6.10582 -21.0506 39.1905 -68.3479 0.581521 16.0702 -0.0820912 -6.58917 0.27823 -0.79459 0.863934 -1.02398 -6.19688 0.0 0.0 0.0 20.3829 -12.6644 -3.82925 -5.98735 0.199805 0.896743 19.4517 14.168 -2.68242 -18.4094 0.0 0.0 -0.0 0.0 -0.0 24.7148 25.3078 -2.82046 -16.8033 -0.32 -2.54954 28.1628 -27.1863 3.94552 -5.38601 0.0 0.0 0.0 0.0 0.0 
730.854010967 608.607 -1738.45092704 -76.04006955 70.8724625863 74.0958955867 7.60153 0.3753 0.943795 7.60197 0.314486 0.965761 7.60651 0.237332 0.987555 7.60536 0.390312 0.937687 -26.386 -7.58382 -3.94689 -26.7152 -13.0381 -7.72869 -0.0 0.0 -0.0 -6.96403 20.5929 -7.83752 -15.1039 -35.7568 65.1687 1.95324 -44.0512 0.79024 12.5614 0.270489 -1.57861 0.359107 12.8771 7.57419 -0.0 0.0 -0.0 2.82081 -11.0933 -6.10582 -21.0506 39.1905 -68.3479 0.581521 16.0702 -0.0820912 -6.58917 0.27823 -0.79459 0.863934 -1.02398 -6.19688 0.0 0.0 0.0 20.3829 -12.6644 -3.82925 -5.98735 0.199805 0.896743 19.4517 14.168 -2.68242 -18.4094 0.0 0.0 -0.0 0.0 -0.0 24.7148 25.3078 -2.82046 -16.8033 -0.32 -2.54954 28.1628 -27.1863 3.94552 -5.38601 0.0 0.0 0.0 0.0 0.0 
731.466029574 608.607 -1741.74293035 -74.3525896842 70.717103758 72.3089840525 7.60153 0.3753 0.943795 7.60197 0.314486 0.965761 7.60651 0.237332 0.987555 7.60536 0.390312 0.937687 -26.386 -7.58382 -3.94689 -26.7152 -13.0381 -7.72869 -0.0 0.0 -0.0 -6.96403 20.5929 -7.83752 -15.1039 -35.7568 65.1687 1.95324 -44.0512 0.79024 12.5614 0.270489 -1.57861 0.359107 12.8771 7.57419 -0.0 0.0 -0.0 2.82081 -11.0933 -6.10582 -21.0506 39.1905 -68.3479 0.581521 16.0702 -0.0820912 -6.58917 0.27823 -0.79459 0.863934 -1.02398 -6.19688 0.0 0.0 0.0 20.3829 -12.6644 -3.82925 -5.98735 0.199805 0.896743 19.4517 14.168 -2.68242 -18.4094 0.0 0.0 -0.0 0.0 -0.0 24.7148 25.3078 -2.82046 -16.8033 -0.32 -2.54954 28.1628 -27.1863 3.94552 -5.38601 0.0 0.0 0.0 0.0 0.0 
731.772186173 608.607 -1743.32068139 -73.5528023697 70.6364353364 71.4614545408 7.60153 0.3753 0.943795 7.60197 0.314486 0.965761 7.60651 0.237332 0.987555 7.60536 0.390312 0.937687 -26.386 -7.58382 -3.94689 -26.7152 -13.0381 -7.72869 -0.0 0.0 -0.0 -6.96403 20.5929 -7.83752 -15.1039 -35.7568 65.1687 1.95324 -44.0512 0.79024 12.5614 0.270489 -1.57861 0.359107 12.8771 7.57419 -0.0 0.0 -0.0 2.82081 -11.0933 -6.10582 -21.0506 39.1905 -68.3479 0.581521 16.0702 -0.0820912 -6.58917 0.27823 -0.79459 0.863934 -1.02398 -6.19688 0.0 0.0 0.0 20.3829 -12.6644 -3.82925 -5.98735 0.199805 0.896743 19.4517 14.168 -2.68242 -18.4094 0.0 0.0 -0.0 0.0 -0.0 24.7148 25.3078 -2.82046 -16.8033 -0.32 -2.54954 28.1628 -27.1863 3.94552 -5.38601 0.0 0.0 0.0 0.0 0.0 
732.749764919 608.607 -1748.09578301 -71.1706059754 70.3682117105 68.9343934369 7.60153 0.3753 0.943795 7.60197 0.314486 0.965761 7.60651 0.237332 0.987555 7.60536 0.390312 0.937687 -26.386 -7.58382 -3.94689 -26.7152 -13.0381 -7.72869 -0.0 0.0 -0.0 -6.96403 20.5929 -7.83752 -15.1039 -35.7568 65.1687 1.95324 -44.0512 0.79024 12.5614 0.270489 -1.57861 0.359107 12.8771 7.57419 -0.0 0.0 -0.0 2.82081 -11.0933 -6.10582 -21.0506 39.1905 -68.3479 0.581521 16.0702 -0.0820912 -6.58917 0.27823 -0.79459 0.863934 -1.02398 -6.19688 0.0 0.0 0.0 20.3829 -12.6644 -3.82925 -5.98735 0.199805 0.896743 19.4517 14.168 -2.68242 -18.4094 0.0 0.0 -0.0 0.0 -0.0 24.7148 25.3078 -2.82046 -16.8033 -0.32 -2.54954 28.1628 -27.1863 3.94552 -5.38601 0.0 0.0 0.0 0.0 0.0 
